<?xml version="1.0" standalone="no"?>
<!DOCTYPE svg PUBLIC "-//W3C//DTD SVG 20010904//EN"
 "http://www.w3.org/TR/2001/REC-SVG-20010904/DTD/svg10.dtd">
<svg version="1.0" xmlns="http://www.w3.org/2000/svg"
 width="960.000000pt" height="718.000000pt" viewBox="0 0 960.000000 718.000000"
 preserveAspectRatio="xMidYMid meet">

<g transform="translate(0.000000,718.000000) scale(0.100000,-0.100000)"
fill="#000000" stroke="none">
<path d="M3295 7169 c-361 -34 -677 -120 -1100 -301 -229 -98 -373 -178 -564
-314 -611 -436 -1247 -1092 -1480 -1524 -57 -106 -89 -197 -117 -330 -92 -437
13 -789 334 -1120 l79 -82 129 65 c360 180 907 428 1174 532 167 65 368 131
457 149 97 20 224 25 193 7 -8 -5 -168 -68 -355 -141 -369 -143 -465 -189
-655 -315 -265 -175 -430 -338 -430 -424 0 -27 47 -35 131 -22 120 19 212 63
473 225 181 112 296 167 436 209 314 95 704 145 1040 133 263 -9 288 -13 304
-45 55 -110 127 -561 146 -923 12 -205 27 -279 78 -359 90 -142 240 -208 373
-164 40 14 69 34 114 79 106 106 168 258 184 444 7 88 12 106 32 128 21 22 30
25 69 21 58 -7 79 -32 118 -140 66 -182 78 -334 42 -544 -89 -518 -263 -896
-545 -1179 -259 -260 -560 -400 -900 -420 -166 -9 -326 19 -390 70 l-27 22 30
60 c102 203 325 387 677 561 66 33 151 73 190 89 l70 29 -56 7 c-90 11 -168
43 -473 194 -311 154 -388 185 -536 210 -129 22 -411 14 -555 -15 -55 -12
-101 -21 -102 -21 0 0 -10 31 -22 69 -73 241 -347 417 -801 515 -201 43 -518
80 -509 60 2 -5 43 -88 91 -184 114 -228 145 -325 158 -489 32 -399 64 -515
202 -713 110 -158 238 -291 398 -414 137 -105 287 -182 417 -213 70 -17 91
-27 157 -80 336 -267 1029 -479 1816 -557 268 -26 747 -9 1010 37 264 46 810
214 993 305 251 126 606 350 820 517 650 508 1035 1109 1151 1797 43 255 53
640 22 860 -46 326 -143 690 -268 1003 -17 43 -28 81 -24 85 4 3 154 -8 334
-26 584 -58 870 -65 1120 -27 361 55 573 205 637 450 61 238 -75 546 -394 890
-357 386 -844 632 -1531 774 -369 76 -637 102 -1130 108 -409 5 -606 -4 -925
-43 l-130 -16 -160 65 c-474 193 -908 310 -1335 362 -161 19 -545 27 -685 14z
m951 -1103 c280 -94 486 -170 599 -220 105 -47 194 -155 242 -293 23 -68 27
-94 27 -203 0 -146 -12 -209 -59 -305 -124 -250 -355 -378 -685 -378 -148 0
-318 25 -327 49 -8 21 33 131 76 203 102 171 273 318 508 438 l102 52 -57 16
c-194 56 -409 243 -586 510 -88 132 -141 225 -128 225 5 0 135 -42 288 -94z
m2801 -36 c106 -53 255 -161 396 -284 168 -148 289 -316 303 -420 6 -41 4 -48
-23 -75 -39 -38 -106 -50 -152 -27 -107 56 -550 472 -627 590 -38 58 -39 62
-42 163 l-4 103 25 0 c14 0 69 -22 124 -50z m-4117 -295 c91 -28 102 -45 151
-230 86 -330 110 -706 50 -823 -24 -46 -74 -71 -215 -107 -188 -48 -623 -102
-643 -81 -12 13 24 33 255 141 309 144 402 207 402 271 0 67 -139 212 -315
328 -241 160 -502 244 -674 217 -242 -38 -521 -287 -932 -833 -67 -88 -118
-162 -115 -165 3 -3 236 -23 518 -43 511 -36 513 -37 473 -54 -22 -10 -235
-98 -474 -197 l-433 -179 -123 0 c-182 0 -332 33 -349 75 -14 39 -6 223 15
306 57 232 233 490 477 702 216 187 411 316 667 442 252 124 486 200 735 239
133 21 453 16 530 -9z m-860 -540 c126 -45 211 -164 212 -302 0 -85 -25 -153
-79 -213 -64 -71 -129 -102 -223 -108 -102 -6 -175 22 -246 92 -200 201 -60
546 222 546 39 0 91 -7 114 -15z m3937 -84 c237 -114 469 -313 611 -523 135
-200 234 -475 248 -688 15 -215 -65 -411 -239 -592 -64 -66 -116 -90 -207 -96
-211 -12 -474 138 -809 463 -156 151 -280 305 -334 414 -37 74 -42 93 -42 152
0 55 4 73 23 96 88 109 153 204 256 373 160 262 230 363 285 411 41 36 50 40
84 36 21 -3 77 -24 124 -46z m-1333 -1324 c303 -479 435 -860 436 -1259 0
-400 -150 -750 -449 -1048 -69 -69 -155 -145 -191 -170 -36 -24 -60 -38 -54
-30 6 8 41 53 77 101 170 222 289 475 349 741 20 91 23 129 23 323 0 247 -14
341 -81 544 -41 124 -143 337 -207 434 l-45 68 44 165 c24 91 44 172 44 180 0
27 15 13 54 -49z m998 -2117 c106 -40 231 -161 293 -285 32 -63 39 -87 43
-154 4 -74 3 -82 -29 -141 -53 -99 -152 -175 -331 -252 -283 -122 -851 -217
-1413 -235 l-200 -6 130 108 c510 426 1028 815 1239 931 126 69 163 74 268 34z"/>
<path d="M5927 5013 c-2 -5 -14 -39 -27 -78 -24 -74 -97 -228 -133 -279 -77
-110 -131 -156 -293 -246 -131 -74 -154 -93 -154 -134 0 -27 20 -51 143 -171
268 -263 510 -475 647 -567 l75 -51 105 6 c201 12 351 71 394 156 34 67 26
318 -14 477 -71 276 -292 561 -644 831 -82 64 -91 69 -99 56z m86 -452 c71
-48 251 -243 315 -341 70 -106 107 -204 98 -258 -9 -59 -64 -160 -94 -176 -25
-13 -34 -12 -97 13 -186 72 -360 211 -514 409 l-33 42 72 83 c40 45 100 121
134 169 33 48 65 88 69 88 5 0 27 -13 50 -29z"/>
<path d="M5479 1500 c-69 -20 -175 -90 -294 -191 -211 -180 -595 -462 -783
-575 -31 -19 -51 -34 -45 -34 35 0 756 157 1018 221 401 99 445 121 445 218 0
119 -102 311 -191 357 -30 15 -107 17 -150 4z"/>
</g>
</svg>
